<?xml version="1.0" encoding="UTF-8"?>
<svg version="1.1" xmlns="http://www.w3.org/2000/svg" width="256" height="256">
<path d="M0 0 C3.74831585 1.49932634 5.91081525 2.46498229 8.9765625 4.765625 C10.09140015 5.59525757 10.09140015 5.59525757 11.22875977 6.44165039 C12.41489868 7.33678345 12.41489868 7.33678345 13.625 8.25 C15.33454994 9.52485421 17.04418781 10.79959052 18.75390625 12.07421875 C19.62547363 12.72696777 20.49704102 13.3797168 21.39501953 14.05224609 C25.43700821 17.07445656 29.4988999 20.06944312 33.5625 23.0625 C34.3469751 23.64088623 35.1314502 24.21927246 35.93969727 24.81518555 C39.80430523 27.66105438 43.6761412 30.49639492 47.5625 33.3125 C48.67866699 34.12158813 48.67866699 34.12158813 49.81738281 34.94702148 C51.30828549 36.01980346 52.80502975 37.08451553 54.30761719 38.14086914 C58.17277458 40.87117384 61.83666051 43.68107335 65.390625 46.80859375 C66.13175537 47.42597412 66.87288574 48.04335449 67.63647461 48.67944336 C69.8125 50.5 69.8125 50.5 71.67016602 52.30297852 C74.5817727 54.66733132 77.18681694 56.04928057 81.03538418 55.94468021 C83.50913829 55.65510037 85.95291678 55.27534139 88.40893555 54.86132812 C89.78599041 54.64644997 89.78599041 54.64644997 91.19086456 54.42723083 C94.12960573 53.9651546 97.06465548 53.48313781 100 53 C101.91423343 52.69487269 103.82864587 52.39086622 105.74324036 52.0880127 C111.43625621 51.18243444 117.12454129 50.2492316 122.8125 49.3125 C124.78837949 48.98873713 126.76429084 48.66516867 128.74023438 48.34179688 C133.49385756 47.56342419 138.24705 46.78247241 143 46 C143.32763513 66.52322543 143.57420608 87.0460173 143.72537041 107.57133102 C143.79743835 117.10264465 143.895611 126.63232973 144.05615234 136.16259766 C144.19608253 144.47330926 144.28610376 152.78284125 144.31723893 161.09469819 C144.33543028 165.49298109 144.37788973 169.88789084 144.48022079 174.28508759 C145.12797692 203.21083149 145.12797692 203.21083149 139.92976379 209.76646423 C136.63436234 212.97110766 133.09632496 214.96044429 129 217 C126.73463601 218.76084056 126.73463601 218.76084056 125.02734375 220.41015625 C119.00881009 225.57743329 112.97391636 230.7241659 106.91186523 235.84033203 C102.1695017 239.84647458 97.45739758 243.88744833 92.75585938 247.94140625 C91.67146483 248.87416396 90.5811919 249.80014345 89.484375 250.71826172 C88.1312035 251.88670751 86.85691152 253.14494415 85.59375 254.41015625 C81.95598099 256.63993334 78.9995102 255.80896067 75 255 C71.91496491 254.16778488 68.90631218 253.15597963 65.88671875 252.11328125 C65.01488449 251.81940018 64.14305023 251.5255191 63.24479675 251.22273254 C61.36723087 250.58903247 59.490801 249.95195835 57.61541748 249.31182861 C52.60930568 247.60319072 47.59498953 245.91888984 42.58203125 244.23046875 C41.55086182 243.88234131 40.51969238 243.53421387 39.45727539 243.17553711 C28.2897616 239.41028162 17.08511626 235.76106043 5.875 232.125 C4.00739655 231.51866393 2.13980191 230.91230074 0.2722168 230.3059082 C-2.96030465 229.25653606 -6.19316704 228.20822486 -9.42626953 227.16064453 C-11.62004213 226.4481705 -13.81179715 225.72940095 -16 225 C-16.33 235.23 -16.66 245.46 -17 256 C-20.95079122 254.68306959 -22.46244439 252.14616434 -24.875 248.9375 C-25.86063433 247.65391413 -26.84767008 246.37140344 -27.8359375 245.08984375 C-28.3525293 244.41808105 -28.86912109 243.74631836 -29.40136719 243.05419922 C-32.04498669 239.65722083 -34.77363214 236.33065127 -37.5 233 C-41.53283395 228.06118383 -45.51812176 223.09179066 -49.4375 218.0625 C-54.11312495 212.0666986 -58.92959222 206.1953024 -63.78857422 200.34741211 C-66.6358838 196.91061126 -69.44417144 193.45590565 -72.16015625 189.9140625 C-72.89782227 188.9540332 -72.89782227 188.9540332 -73.65039062 187.97460938 C-74.56158138 186.78111333 -75.46578412 185.58223415 -76.36132812 184.37695312 C-80.53514572 178.91076862 -84.83657258 176.85106182 -91.359375 174.9921875 C-92.55691406 174.64542969 -93.75445312 174.29867187 -94.98828125 173.94140625 C-96.22964844 173.58949219 -97.47101563 173.23757812 -98.75 172.875 C-101.22475465 172.16683944 -103.69875884 171.45604914 -106.171875 170.7421875 C-107.8130127 170.27594971 -107.8130127 170.27594971 -109.48730469 169.80029297 C-112 169 -112 169 -113 168 C-113.17885794 165.78214718 -113.2866214 163.55854611 -113.36743164 161.33496094 C-113.40620171 160.28806343 -113.40620171 160.28806343 -113.445755 159.22001648 C-113.67350595 152.704993 -113.80618482 146.18761363 -113.91112614 139.66956711 C-113.98278072 135.30111495 -114.08409245 130.93827942 -114.26196289 126.57275391 C-115.63254625 92.06251128 -115.63254625 92.06251128 -103.34083557 78.37225342 C-101.95593585 76.94290186 -100.54712728 75.53629065 -99.11430359 74.15498352 C-96.81309971 71.80950368 -94.90322849 69.31651656 -92.93261719 66.68920898 C-89.55606354 62.39738664 -86.73761403 60.1236454 -81.64453125 58.26953125 C-80.95700775 57.99134552 -80.26948425 57.71315979 -79.56112671 57.42654419 C-77.32143797 56.52757516 -75.06823318 55.67031067 -72.8125 54.8125 C-71.22519356 54.18390388 -69.63902963 53.55241592 -68.05395508 52.91821289 C-64.73840433 51.59603102 -61.41723142 50.28972509 -58.09082031 48.99511719 C-53.01752023 47.01550055 -47.97103839 44.97348425 -42.9296875 42.9140625 C-42.10943588 42.5791832 -41.28918427 42.24430389 -40.44407654 41.89927673 C-38.81630834 41.23464841 -37.18857649 40.56993107 -35.56088257 39.90512085 C-24.06201332 35.21706686 -12.5319982 30.60578895 -1 26 C-0.67 17.42 -0.34 8.84 0 0 Z M67.37059021 59.96014404 C65.72511703 60.27962509 65.72511703 60.27962509 64.04640198 60.6055603 C62.85731735 60.84239532 61.66823273 61.07923035 60.44311523 61.32324219 C59.17874634 61.57040985 57.91437744 61.81757751 56.61169434 62.07223511 C53.14900251 62.74926513 49.68771456 63.43323793 46.22662997 64.11843014 C42.58175363 64.83872647 38.93559498 65.55247203 35.28956604 66.26690674 C28.36528407 67.62471543 21.44212949 68.98818355 14.51937968 70.35378003 C5.957181 72.04252859 -2.60632949 73.72458556 -11.16992188 75.40625 C-14.19791933 76.00087607 -17.2259108 76.59553259 -20.25389099 77.19024658 C-20.99074456 77.33496564 -21.72759812 77.4796847 -22.48678058 77.62878919 C-26.7997958 78.47605345 -31.11255543 79.32460333 -35.42506039 80.17446089 C-37.48037749 80.5794823 -39.53574474 80.98424828 -41.59112549 81.38894653 C-44.06534563 81.87621102 -46.53947362 82.3639439 -49.01347351 82.85232544 C-59.66711796 84.94949064 -70.33288685 86.96816892 -81 89 C-81 117.71 -81 146.42 -81 176 C-63.78047543 178.58367162 -63.78047543 178.58367162 -46.52392578 180.80932617 C-45.22366455 180.96582138 -43.92340332 181.12231659 -42.58374023 181.28355408 C-39.09322656 181.70350205 -35.60228374 182.11976509 -32.11121225 182.53504729 C-29.17793354 182.8843504 -26.24488689 183.23558156 -23.31183612 183.58679277 C-16.39815133 184.41463545 -9.48411319 185.23947573 -2.56982422 186.06225586 C4.54278081 186.90868129 11.65479884 187.75991496 18.76654804 188.61349887 C24.91021152 189.35074086 31.05419908 190.08523542 37.19845974 190.81748372 C40.85271344 191.25299774 44.50684316 191.68948917 48.16067123 192.12856102 C52.21845863 192.61601363 56.27690872 193.09771552 60.33544922 193.57885742 C61.53545563 193.7237561 62.73546204 193.86865479 63.97183228 194.01794434 C65.07867371 194.14823532 66.18551514 194.27852631 67.32589722 194.4127655 C68.28255217 194.52685855 69.23920712 194.6409516 70.22485161 194.75850201 C73.13999154 195.01218229 76.07384305 195 79 195 C79 150.12 79 105.24 79 59 C74.67441871 59 71.48991972 59.14956928 67.37059021 59.96014404 Z " fill="#0073D0" transform="translate(113,0)"/>
<path d="M0 0 C3.74831585 1.49932634 5.91081525 2.46498229 8.9765625 4.765625 C10.09140015 5.59525757 10.09140015 5.59525757 11.22875977 6.44165039 C12.41489868 7.33678345 12.41489868 7.33678345 13.625 8.25 C15.33454994 9.52485421 17.04418781 10.79959052 18.75390625 12.07421875 C19.62547363 12.72696777 20.49704102 13.3797168 21.39501953 14.05224609 C25.43700935 17.07445741 29.49899431 20.06931337 33.5625 23.0625 C34.73703735 23.9289917 34.73703735 23.9289917 35.93530273 24.81298828 C41.3275905 28.78566809 46.75087503 32.71330348 52.1875 36.625 C55.12731352 38.74681501 58.06421757 40.87261203 61 43 C61.76135254 43.55026855 62.52270508 44.10053711 63.30712891 44.66748047 C65.54480608 46.29018729 67.7734881 47.92451905 70 49.5625 C71.01549927 50.29557373 71.01549927 50.29557373 72.05151367 51.04345703 C75.30291805 53.45349476 77.37574662 55.30374466 79 59 C77.97256683 59.19885803 76.94513367 59.39771606 75.88656616 59.6026001 C75.19377815 59.7366884 74.50099014 59.87077671 73.78720856 60.0089283 C72.19024958 60.3180165 70.59329013 60.62710224 68.99633026 60.93618584 C64.3583112 61.83385538 59.72030136 62.73157253 55.08230591 63.62936401 C45.65753471 65.45369755 36.23269937 67.27769708 26.80757523 69.10020638 C21.47323938 70.13170196 16.13895104 71.16344305 10.8046875 72.1953125 C9.21131939 72.50352999 9.21131939 72.50352999 7.58576202 72.81797409 C-5.45667802 75.34130493 -18.49727539 77.87373978 -31.53458786 80.4234314 C-35.86447781 81.26983261 -40.19480087 82.11401579 -44.52511787 82.95822906 C-47.82709319 83.60225789 -51.12868672 84.24813332 -54.42950439 84.89807129 C-58.02513534 85.60540284 -61.62180063 86.30722173 -65.21875 87.0078125 C-66.25393768 87.2131662 -67.28912537 87.4185199 -68.35568237 87.63009644 C-69.29985016 87.81291168 -70.24401794 87.99572693 -71.21679688 88.18408203 C-72.02661011 88.34296906 -72.83642334 88.50185608 -73.67077637 88.66555786 C-76 89 -76 89 -81 89 C-81 117.71 -81 146.42 -81 176 C-74.4 176.66 -67.8 177.32 -61 178 C-54.80504472 178.70559291 -48.61256989 179.42324464 -42.421875 180.1640625 C-40.74654016 180.3631476 -39.07118572 180.56206782 -37.39581299 180.76083374 C-33.06234571 181.27539022 -28.72914179 181.79213054 -24.39599609 182.30938721 C-19.94384733 182.84043678 -15.49144316 183.3693363 -11.0390625 183.8984375 C-2.35912909 184.93023314 6.32052625 185.96434486 15 187 C14.34 187.33 13.68 187.66 13 188 C13 188.66 13 189.32 13 190 C13.66 190 14.32 190 15 190 C15 204.85 15 219.7 15 235 C4.77 231.7 -5.46 228.4 -16 225 C-16.33 235.23 -16.66 245.46 -17 256 C-20.95079122 254.68306959 -22.46244439 252.14616434 -24.875 248.9375 C-25.86063433 247.65391413 -26.84767008 246.37140344 -27.8359375 245.08984375 C-28.3525293 244.41808105 -28.86912109 243.74631836 -29.40136719 243.05419922 C-32.04498669 239.65722083 -34.77363214 236.33065127 -37.5 233 C-41.53283395 228.06118383 -45.51812176 223.09179066 -49.4375 218.0625 C-54.11312495 212.0666986 -58.92959222 206.1953024 -63.78857422 200.34741211 C-66.6358838 196.91061126 -69.44417144 193.45590565 -72.16015625 189.9140625 C-72.89782227 188.9540332 -72.89782227 188.9540332 -73.65039062 187.97460938 C-74.56158138 186.78111333 -75.46578412 185.58223415 -76.36132812 184.37695312 C-80.53514572 178.91076862 -84.83657258 176.85106182 -91.359375 174.9921875 C-92.55691406 174.64542969 -93.75445312 174.29867187 -94.98828125 173.94140625 C-96.22964844 173.58949219 -97.47101563 173.23757812 -98.75 172.875 C-101.22475465 172.16683944 -103.69875884 171.45604914 -106.171875 170.7421875 C-107.8130127 170.27594971 -107.8130127 170.27594971 -109.48730469 169.80029297 C-112 169 -112 169 -113 168 C-113.17885794 165.78214718 -113.2866214 163.55854611 -113.36743164 161.33496094 C-113.40620171 160.28806343 -113.40620171 160.28806343 -113.445755 159.22001648 C-113.67350595 152.704993 -113.80618482 146.18761363 -113.91112614 139.66956711 C-113.98278072 135.30111495 -114.08409245 130.93827942 -114.26196289 126.57275391 C-115.63254625 92.06251128 -115.63254625 92.06251128 -103.34083557 78.37225342 C-101.95593585 76.94290186 -100.54712728 75.53629065 -99.11430359 74.15498352 C-96.81309971 71.80950368 -94.90322849 69.31651656 -92.93261719 66.68920898 C-89.55606354 62.39738664 -86.73761403 60.1236454 -81.64453125 58.26953125 C-80.95700775 57.99134552 -80.26948425 57.71315979 -79.56112671 57.42654419 C-77.32143797 56.52757516 -75.06823318 55.67031067 -72.8125 54.8125 C-71.22519356 54.18390388 -69.63902963 53.55241592 -68.05395508 52.91821289 C-64.73840433 51.59603102 -61.41723142 50.28972509 -58.09082031 48.99511719 C-53.01752023 47.01550055 -47.97103839 44.97348425 -42.9296875 42.9140625 C-42.10943588 42.5791832 -41.28918427 42.24430389 -40.44407654 41.89927673 C-38.81630834 41.23464841 -37.18857649 40.56993107 -35.56088257 39.90512085 C-24.06201332 35.21706686 -12.5319982 30.60578895 -1 26 C-0.67 17.42 -0.34 8.84 0 0 Z " fill="#0067B9" transform="translate(113,0)"/>
<path d="M0 0 C0.99 0 1.98 0 3 0 C3.33 2.31 3.66 4.62 4 7 C4.66 7 5.32 7 6 7 C5.85904936 8.6254308 5.71207913 10.25034051 5.5625 11.875 C5.48128906 12.77992187 5.40007812 13.68484375 5.31640625 14.6171875 C5 17 5 17 4 19 C3.01 19 2.02 19 1 19 C1.21112427 20.62083496 1.21112427 20.62083496 1.42651367 22.27441406 C3.60810114 41.0773553 3.34020799 59.96589099 3.31567383 78.86572266 C3.3097936 83.81986762 3.32706197 88.773649 3.3500185 93.72773361 C3.36469028 97.56231887 3.36563825 101.39681409 3.36250877 105.23142242 C3.36302208 107.06072987 3.3682615 108.89004234 3.37832069 110.7193222 C3.39058359 113.25291221 3.38396327 115.78575894 3.37231445 118.31933594 C3.37995819 119.07239517 3.38760193 119.82545441 3.39547729 120.60133362 C3.3742218 122.68060303 3.3742218 122.68060303 3 126 C1.515 126.99 1.515 126.99 0 128 C0 85.76 0 43.52 0 0 Z " fill="#226AA3" transform="translate(192,62)"/>
<path d="M0 0 C0.66 0.33 1.32 0.66 2 1 C3.9235518 9.34654216 2.86925984 18.45055761 2.3190918 26.9050293 C2.265354 27.80519775 2.21161621 28.70536621 2.15625 29.6328125 C2.10275391 30.42574707 2.04925781 31.21868164 1.99414062 32.03564453 C1.99932323 34.65761146 2.2081325 37.11014837 2.50048828 39.71118164 C3.04733663 44.84298747 3.03695239 49.83699278 2.8359375 54.98828125 C2.80198883 55.89450729 2.76804016 56.80073334 2.73306274 57.73442078 C2.65801994 59.63113833 2.5788239 61.52769583 2.49560547 63.42407227 C2.37460063 66.32206474 2.28685722 69.21997194 2.19921875 72.11914062 C2.12184072 73.9714409 2.04248336 75.82365978 1.9609375 77.67578125 C1.93985931 78.53730301 1.91878113 79.39882477 1.89706421 80.28645325 C1.67742299 84.42521269 1.43632084 87.06452394 -1.56005859 90.08276367 C-2.76782959 91.03179565 -2.76782959 91.03179565 -4 92 C-3.125 87.125 -3.125 87.125 -2 86 C-1.88023546 83.39443361 -1.82455484 80.81417198 -1.81054688 78.20727539 C-1.79810692 76.98292534 -1.79810692 76.98292534 -1.78541565 75.73384094 C-1.76797561 73.95556166 -1.75281973 72.1772589 -1.73963928 70.39894295 C-1.71867828 67.58803815 -1.69165006 64.77725127 -1.66296387 61.96641541 C-1.60315835 55.99848851 -1.55105971 50.03050728 -1.5 44.0625 C-1.44084719 37.15298042 -1.3785881 30.24351878 -1.30812073 23.33410454 C-1.28147679 20.55877904 -1.2607027 17.78344798 -1.2401123 15.0080719 C-1.22351292 13.31275148 -1.2066414 11.61743369 -1.18945312 9.92211914 C-1.18526871 9.1454187 -1.18108429 8.36871826 -1.17677307 7.56848145 C-1.11384094 2.22768188 -1.11384094 2.22768188 0 0 Z " fill="#0B71C1" transform="translate(196,102)"/>
<path d="M0 0 C0.99 0 1.98 0 3 0 C3.33 2.31 3.66 4.62 4 7 C4.66 7 5.32 7 6 7 C5.85904936 8.6254308 5.71207913 10.25034051 5.5625 11.875 C5.48128906 12.77992187 5.40007812 13.68484375 5.31640625 14.6171875 C5 17 5 17 4 19 C3.01 19 2.02 19 1 19 C1.33 25.6 1.66 32.2 2 39 C1.34 38.67 0.68 38.34 0 38 C0 25.46 0 12.92 0 0 Z " fill="#126FB9" transform="translate(192,62)"/>
<path d="M0 0 C0.33 0 0.66 0 1 0 C1.09263613 11.14385304 1.16373262 22.28761464 1.20724869 33.43177414 C1.22813313 38.60634704 1.25646658 43.78065672 1.30175781 48.95507812 C1.34518476 53.94769125 1.36913065 58.94005103 1.37950897 63.93283844 C1.386906 65.83867634 1.40135054 67.74450021 1.42292023 69.65023041 C1.45191246 72.317582 1.45595778 74.98388366 1.45410156 77.65136719 C1.46848267 78.4411496 1.48286377 79.23093201 1.49768066 80.04464722 C1.46994679 83.72212782 1.31433839 85.60919811 -1.02838135 88.52178955 C-1.6790155 89.009599 -2.32964966 89.49740845 -3 90 C-2.125 85.125 -2.125 85.125 -1 84 C-0.87492518 81.38399547 -0.81394595 78.79308066 -0.79467773 76.17553711 C-0.78477814 75.35609116 -0.77487854 74.5366452 -0.76467896 73.69236755 C-0.73296945 70.97072283 -0.70826938 68.24906061 -0.68359375 65.52734375 C-0.66303237 63.64546747 -0.64203612 61.76359589 -0.62062073 59.88172913 C-0.56531574 54.91856689 -0.51594377 49.9553624 -0.46777344 44.99212646 C-0.41761978 39.93156149 -0.36190176 34.8710582 -0.30664062 29.81054688 C-0.19895605 19.87375055 -0.09753411 9.93690077 0 0 Z " fill="#166EB4" transform="translate(195,104)"/>
<path d="M0 0 C0.99 0.33 1.98 0.66 3 1 C2.34 1 1.68 1 1 1 C1.33 28.72 1.66 56.44 2 85 C1.34 85 0.68 85 0 85 C0 56.95 0 28.9 0 0 Z " fill="#000106" transform="translate(33,90)"/>
<path d="M0 0 C3 3 3 3 3.29296875 6.13671875 C3.25816406 7.30847656 3.22335938 8.48023437 3.1875 9.6875 C3.16042969 10.86699219 3.13335937 12.04648438 3.10546875 13.26171875 C3.07066406 14.16535156 3.03585938 15.06898437 3 16 C2.01 16.33 1.02 16.66 0 17 C0 11.39 0 5.78 0 0 Z " fill="#216AA5" transform="translate(192,63)"/>
<path d="M0 0 C0.99 0.33 1.98 0.66 3 1 C2.34 1 1.68 1 1 1 C1 10.57 1 20.14 1 30 C0.67 30 0.34 30 0 30 C0 20.1 0 10.2 0 0 Z " fill="#003F7B" transform="translate(97,226)"/>
<path d="M0 0 C3.63 0.33 7.26 0.66 11 1 C8 4 8 4 4.3125 4.1875 C2.6728125 4.0946875 2.6728125 4.0946875 1 4 C0.67 2.68 0.34 1.36 0 0 Z " fill="#0D6EB8" transform="translate(175,193)"/>
<path d="M0 0 C0.33 0 0.66 0 1 0 C1 8.58 1 17.16 1 26 C0.34 25.67 -0.32 25.34 -1 25 C-0.67 16.75 -0.34 8.5 0 0 Z " fill="#004284" transform="translate(111,0)"/>
<path d="M0 0 C2.64 0.33 5.28 0.66 8 1 C8 1.99 8 2.98 8 4 C5.6875 4.25 5.6875 4.25 3 4 C1.1875 2 1.1875 2 0 0 Z " fill="#0B5D9F" transform="translate(48,178)"/>
<path d="M0 0 C1.98 0 3.96 0 6 0 C6 0.33 6 0.66 6 1 C4.02 1 2.04 1 0 1 C0 0.67 0 0.34 0 0 Z " fill="#002747" transform="translate(178,192)"/>
<path d="M0 0 C1.98 0 3.96 0 6 0 C6 0.33 6 0.66 6 1 C4.02 1 2.04 1 0 1 C0 0.67 0 0.34 0 0 Z " fill="#002386" transform="translate(170,191)"/>
<path d="M0 0 C1.98 0 3.96 0 6 0 C6 0.33 6 0.66 6 1 C4.02 1 2.04 1 0 1 C0 0.67 0 0.34 0 0 Z " fill="#002763" transform="translate(162,190)"/>
<path d="M0 0 C1.98 0 3.96 0 6 0 C6 0.33 6 0.66 6 1 C4.02 1 2.04 1 0 1 C0 0.67 0 0.34 0 0 Z " fill="#00276D" transform="translate(153,189)"/>
<path d="M0 0 C1.98 0 3.96 0 6 0 C6 0.33 6 0.66 6 1 C4.02 1 2.04 1 0 1 C0 0.67 0 0.34 0 0 Z " fill="#002371" transform="translate(145,188)"/>
<path d="M0 0 C1.98 0 3.96 0 6 0 C6 0.33 6 0.66 6 1 C4.02 1 2.04 1 0 1 C0 0.67 0 0.34 0 0 Z " fill="#00276D" transform="translate(136,187)"/>
<path d="M0 0 C1.98 0 3.96 0 6 0 C6 0.33 6 0.66 6 1 C4.02 1 2.04 1 0 1 C0 0.67 0 0.34 0 0 Z " fill="#00276D" transform="translate(128,186)"/>
<path d="M0 0 C1.98 0 3.96 0 6 0 C6 0.33 6 0.66 6 1 C4.02 1 2.04 1 0 1 C0 0.67 0 0.34 0 0 Z " fill="#00234E" transform="translate(120,185)"/>
<path d="M0 0 C1.98 0 3.96 0 6 0 C6 0.33 6 0.66 6 1 C4.02 1 2.04 1 0 1 C0 0.67 0 0.34 0 0 Z " fill="#000A4E" transform="translate(112,184)"/>
<path d="M0 0 C1.98 0 3.96 0 6 0 C6 0.33 6 0.66 6 1 C4.02 1 2.04 1 0 1 C0 0.67 0 0.34 0 0 Z " fill="#002763" transform="translate(103,183)"/>
<path d="M0 0 C1.98 0 3.96 0 6 0 C6 0.33 6 0.66 6 1 C4.02 1 2.04 1 0 1 C0 0.67 0 0.34 0 0 Z " fill="#00234E" transform="translate(95,182)"/>
<path d="M0 0 C1.98 0 3.96 0 6 0 C6 0.33 6 0.66 6 1 C4.02 1 2.04 1 0 1 C0 0.67 0 0.34 0 0 Z " fill="#001871" transform="translate(87,181)"/>
<path d="M0 0 C1.98 0 3.96 0 6 0 C6 0.33 6 0.66 6 1 C4.02 1 2.04 1 0 1 C0 0.67 0 0.34 0 0 Z " fill="#002747" transform="translate(78,180)"/>
<path d="M0 0 C1.98 0 3.96 0 6 0 C6 0.33 6 0.66 6 1 C4.02 1 2.04 1 0 1 C0 0.67 0 0.34 0 0 Z " fill="#00235C" transform="translate(70,179)"/>
<path d="M0 0 C1.98 0 3.96 0 6 0 C6 0.33 6 0.66 6 1 C4.02 1 2.04 1 0 1 C0 0.67 0 0.34 0 0 Z " fill="#000A47" transform="translate(53,177)"/>
<path d="M0 0 C1.98 0 3.96 0 6 0 C6 0.33 6 0.66 6 1 C4.02 1 2.04 1 0 1 C0 0.67 0 0.34 0 0 Z " fill="#001540" transform="translate(45,176)"/>
<path d="M0 0 C1.65 0 3.3 0 5 0 C5 0.33 5 0.66 5 1 C3.35 1 1.7 1 0 1 C0 0.67 0 0.34 0 0 Z " fill="#001D77" transform="translate(62,178)"/>
<path d="M0 0 C1.65 0 3.3 0 5 0 C5 0.33 5 0.66 5 1 C3.35 1 1.7 1 0 1 C0 0.67 0 0.34 0 0 Z " fill="#002E55" transform="translate(37,175)"/>
<path d="M0 0 C1.65 0 3.3 0 5 0 C5 0.33 5 0.66 5 1 C3.35 1 1.7 1 0 1 C0 0.67 0 0.34 0 0 Z " fill="#00225D" transform="translate(214,51)"/>
<path d="M0 0 C1.65 0 3.3 0 5 0 C5 0.33 5 0.66 5 1 C3.35 1 1.7 1 0 1 C0 0.67 0 0.34 0 0 Z " fill="#00225D" transform="translate(220,50)"/>
<path d="M0 0 C1.65 0 3.3 0 5 0 C5 0.33 5 0.66 5 1 C3.35 1 1.7 1 0 1 C0 0.67 0 0.34 0 0 Z " fill="#001D55" transform="translate(226,49)"/>
<path d="M0 0 C1.65 0 3.3 0 5 0 C5 0.33 5 0.66 5 1 C3.35 1 1.7 1 0 1 C0 0.67 0 0.34 0 0 Z " fill="#001D55" transform="translate(232,48)"/>
<path d="M0 0 C1.65 0 3.3 0 5 0 C5 0.33 5 0.66 5 1 C3.35 1 1.7 1 0 1 C0 0.67 0 0.34 0 0 Z " fill="#001D61" transform="translate(238,47)"/>
<path d="M0 0 C1.65 0 3.3 0 5 0 C5 0.33 5 0.66 5 1 C3.35 1 1.7 1 0 1 C0 0.67 0 0.34 0 0 Z " fill="#001D55" transform="translate(244,46)"/>
<path d="M0 0 C1.65 0 3.3 0 5 0 C5 0.33 5 0.66 5 1 C3.35 1 1.7 1 0 1 C0 0.67 0 0.34 0 0 Z " fill="#001D61" transform="translate(250,45)"/>
<path d="M0 0 C4 1 4 1 4 1 Z " fill="#0035AA" transform="translate(187,193)"/>
<path d="M0 0 C4 1 4 1 4 1 Z " fill="#002555" transform="translate(38,89)"/>
<path d="M0 0 C4 1 4 1 4 1 Z " fill="#00256A" transform="translate(43,88)"/>
<path d="M0 0 C4 1 4 1 4 1 Z " fill="#001060" transform="translate(48,87)"/>
<path d="M0 0 C4 1 4 1 4 1 Z " fill="#00256A" transform="translate(53,86)"/>
<path d="M0 0 C4 1 4 1 4 1 Z " fill="#002535" transform="translate(58,85)"/>
<path d="M0 0 C4 1 4 1 4 1 Z " fill="#002555" transform="translate(79,81)"/>
<path d="M0 0 C4 1 4 1 4 1 Z " fill="#001060" transform="translate(84,80)"/>
<path d="M0 0 C4 1 4 1 4 1 Z " fill="#002555" transform="translate(89,79)"/>
<path d="M0 0 C4 1 4 1 4 1 Z " fill="#00254A" transform="translate(94,78)"/>
<path d="M0 0 C4 1 4 1 4 1 Z " fill="#002535" transform="translate(99,77)"/>
<path d="M0 0 C4 1 4 1 4 1 Z " fill="#00257A" transform="translate(115,74)"/>
<path d="M0 0 C4 1 4 1 4 1 Z " fill="#001060" transform="translate(120,73)"/>
<path d="M0 0 C4 1 4 1 4 1 Z " fill="#001060" transform="translate(125,72)"/>
<path d="M0 0 C4 1 4 1 4 1 Z " fill="#001060" transform="translate(130,71)"/>
<path d="M0 0 C4 1 4 1 4 1 Z " fill="#00254A" transform="translate(135,70)"/>
<path d="M0 0 C4 1 4 1 4 1 Z " fill="#00254A" transform="translate(140,69)"/>
<path d="M0 0 C4 1 4 1 4 1 Z " fill="#00257A" transform="translate(156,66)"/>
<path d="M0 0 C4 1 4 1 4 1 Z " fill="#001060" transform="translate(161,65)"/>
<path d="M0 0 C4 1 4 1 4 1 Z " fill="#00106F" transform="translate(166,64)"/>
<path d="M0 0 C4 1 4 1 4 1 Z " fill="#00254A" transform="translate(171,63)"/>
<path d="M0 0 C4 1 4 1 4 1 Z " fill="#00254A" transform="translate(176,62)"/>
<path d="M0 0 C4 1 4 1 4 1 Z " fill="#002A75" transform="translate(187,60)"/>
<path d="M0 0 C4 1 4 1 4 1 Z " fill="#00256A" transform="translate(196,54)"/>
<path d="M0 0 C4 1 4 1 4 1 Z " fill="#00257A" transform="translate(202,53)"/>
<path d="M0 0 C4 1 4 1 4 1 Z " fill="#00256A" transform="translate(208,52)"/>
<path d="M0 0 C3 1 3 1 3 1 Z " fill="#001C63" transform="translate(185,255)"/>
<path d="M0 0 C3 1 3 1 3 1 Z " fill="#001C63" transform="translate(182,254)"/>
<path d="M0 0 C3 1 3 1 3 1 Z " fill="#001C63" transform="translate(179,253)"/>
<path d="M0 0 C3 1 3 1 3 1 Z " fill="#001C38" transform="translate(176,252)"/>
<path d="M0 0 C3 1 3 1 3 1 Z " fill="#001C38" transform="translate(173,251)"/>
<path d="M0 0 C3 1 3 1 3 1 Z " fill="#001C38" transform="translate(170,250)"/>
<path d="M0 0 C3 1 3 1 3 1 Z " fill="#001C38" transform="translate(167,249)"/>
<path d="M0 0 C3 1 3 1 3 1 Z " fill="#001C38" transform="translate(164,248)"/>
<path d="M0 0 C3 1 3 1 3 1 Z " fill="#001C63" transform="translate(115,232)"/>
<path d="M0 0 C3 1 3 1 3 1 Z " fill="#001C47" transform="translate(112,231)"/>
<path d="M0 0 C3 1 3 1 3 1 Z " fill="#001C47" transform="translate(109,230)"/>
<path d="M0 0 C3 1 3 1 3 1 Z " fill="#001C38" transform="translate(106,229)"/>
<path d="M0 0 C3 1 3 1 3 1 Z " fill="#001C38" transform="translate(103,228)"/>
<path d="M0 0 C3 1 3 1 3 1 Z " fill="#001C38" transform="translate(100,227)"/>
<path d="M0 0 C3 1 3 1 3 1 Z " fill="#003838" transform="translate(25,177)"/>
<path d="M0 0 C3 1 3 1 3 1 Z " fill="#001555" transform="translate(22,176)"/>
<path d="M0 0 C3 1 3 1 3 1 Z " fill="#00152A" transform="translate(15,174)"/>
<path d="M0 0 C3 1 3 1 3 1 Z " fill="#00152A" transform="translate(8,172)"/>
<path d="M0 0 C3 1 3 1 3 1 Z " fill="#001C63" transform="translate(1,170)"/>
<path d="M0 0 C3 1 3 1 3 1 Z " fill="#003163" transform="translate(64,84)"/>
<path d="M0 0 C3 1 3 1 3 1 Z " fill="#00389C" transform="translate(69,83)"/>
<path d="M0 0 C3 1 3 1 3 1 Z " fill="#003171" transform="translate(74,82)"/>
<path d="M0 0 C3 1 3 1 3 1 Z " fill="#003171" transform="translate(105,76)"/>
<path d="M0 0 C3 1 3 1 3 1 Z " fill="#003171" transform="translate(110,75)"/>
<path d="M0 0 C3 1 3 1 3 1 Z " fill="#003871" transform="translate(146,68)"/>
<path d="M0 0 C3 1 3 1 3 1 Z " fill="#00389C" transform="translate(151,67)"/>
<path d="M0 0 C3 1 3 1 3 1 Z " fill="#003871" transform="translate(182,61)"/>
<path d="M0 0 C2 1 2 1 2 1 Z " fill="#000040" transform="translate(197,255)"/>
<path d="" fill="#000000" transform="translate(0,0)"/>
<path d="M0 0 C2 1 2 1 2 1 Z " fill="#000040" transform="translate(204,249)"/>
<path d="" fill="#000000" transform="translate(0,0)"/>
<path d="M0 0 C2 1 2 1 2 1 Z " fill="#002A55" transform="translate(161,247)"/>
<path d="M0 0 C2 1 2 1 2 1 Z " fill="#002A55" transform="translate(158,246)"/>
<path d="M0 0 C2 1 2 1 2 1 Z " fill="#002A55" transform="translate(155,245)"/>
<path d="M0 0 C2 1 2 1 2 1 Z " fill="#002A55" transform="translate(152,244)"/>
<path d="M0 0 C2 1 2 1 2 1 Z " fill="#000000" transform="translate(211,243)"/>
<path d="M0 0 C2 1 2 1 2 1 Z " fill="#002A95" transform="translate(149,243)"/>
<path d="M0 0 C2 1 2 1 2 1 Z " fill="#002A95" transform="translate(146,242)"/>
<path d="M0 0 C2 1 2 1 2 1 Z " fill="#002A95" transform="translate(143,241)"/>
<path d="M0 0 C2 1 2 1 2 1 Z " fill="#002A95" transform="translate(140,240)"/>
<path d="M0 0 C2 1 2 1 2 1 Z " fill="#002A95" transform="translate(137,239)"/>
<path d="M0 0 C2 1 2 1 2 1 Z " fill="#002A95" transform="translate(134,238)"/>
<path d="M0 0 C2 1 2 1 2 1 Z " fill="#000000" transform="translate(218,237)"/>
<path d="M0 0 C2 1 2 1 2 1 Z " fill="#002A95" transform="translate(131,237)"/>
<path d="M0 0 C2 1 2 1 2 1 Z " fill="#002A95" transform="translate(128,236)"/>
<path d="M0 0 C2 1 2 1 2 1 Z " fill="#002A6A" transform="translate(125,235)"/>
<path d="M0 0 C2 1 2 1 2 1 Z " fill="#002A6A" transform="translate(122,234)"/>
<path d="M0 0 C2 1 2 1 2 1 Z " fill="#002A6A" transform="translate(119,233)"/>
<path d="" fill="#002A55" transform="translate(0,0)"/>
<path d="M0 0 C2 1 2 1 2 1 Z " fill="#002A55" transform="translate(224,232)"/>
<path d="" fill="#000040" transform="translate(0,0)"/>
<path d="M0 0 C2 1 2 1 2 1 Z " fill="#000040" transform="translate(231,226)"/>
<path d="" fill="#000040" transform="translate(0,0)"/>
<path d="M0 0 C2 1 2 1 2 1 Z " fill="#000040" transform="translate(238,220)"/>
<path d="" fill="#000040" transform="translate(0,0)"/>
<path d="M0 0 C2 1 2 1 2 1 Z " fill="#000000" transform="translate(245,214)"/>
<path d="" fill="#000000" transform="translate(0,0)"/>
<path d="M0 0 C2 1 2 1 2 1 Z " fill="#000000" transform="translate(252,208)"/>
<path d="" fill="#000000" transform="translate(0,0)"/>
<path d="" fill="#002A55" transform="translate(0,0)"/>
<path d="" fill="#002A55" transform="translate(0,0)"/>
<path d="" fill="#000040" transform="translate(0,0)"/>
<path d="M0 0 C2 1 2 1 2 1 Z " fill="#002A95" transform="translate(29,178)"/>
<path d="M0 0 C2 1 2 1 2 1 Z " fill="#00557F" transform="translate(19,175)"/>
<path d="M0 0 C2 1 2 1 2 1 Z " fill="#005555" transform="translate(12,173)"/>
<path d="M0 0 C2 1 2 1 2 1 Z " fill="#002A95" transform="translate(5,171)"/>
<path d="" fill="#000000" transform="translate(0,0)"/>
<path d="" fill="#000040" transform="translate(0,0)"/>
<path d="" fill="#000040" transform="translate(0,0)"/>
<path d="" fill="#000040" transform="translate(0,0)"/>
<path d="" fill="#002A55" transform="translate(0,0)"/>
<path d="" fill="#002A55" transform="translate(0,0)"/>
<path d="" fill="#002A55" transform="translate(0,0)"/>
<path d="M0 0 C2 1 2 1 2 1 Z " fill="#002A2A" transform="translate(24,60)"/>
<path d="M0 0 C2 1 2 1 2 1 Z " fill="#002A95" transform="translate(26,59)"/>
<path d="M0 0 C2 1 2 1 2 1 Z " fill="#002A95" transform="translate(31,57)"/>
<path d="M0 0 C2 1 2 1 2 1 Z " fill="#002A55" transform="translate(33,56)"/>
<path d="M0 0 C2 1 2 1 2 1 Z " fill="#004AB4" transform="translate(192,55)"/>
<path d="M0 0 C2 1 2 1 2 1 Z " fill="#000080" transform="translate(36,55)"/>
<path d="M0 0 C2 1 2 1 2 1 Z " fill="#000040" transform="translate(190,54)"/>
<path d="M0 0 C2 1 2 1 2 1 Z " fill="#002A2A" transform="translate(38,54)"/>
<path d="M0 0 C2 1 2 1 2 1 Z " fill="#002A95" transform="translate(41,53)"/>
<path d="M0 0 C2 1 2 1 2 1 Z " fill="#002A55" transform="translate(43,52)"/>
<path d="M0 0 C2 1 2 1 2 1 Z " fill="#002A55" transform="translate(186,51)"/>
<path d="M0 0 C2 1 2 1 2 1 Z " fill="#002A95" transform="translate(46,51)"/>
<path d="M0 0 C2 1 2 1 2 1 Z " fill="#002A2A" transform="translate(48,50)"/>
<path d="M0 0 C2 1 2 1 2 1 Z " fill="#00002A" transform="translate(51,49)"/>
<path d="M0 0 C2 1 2 1 2 1 Z " fill="#00002A" transform="translate(53,48)"/>
<path d="M0 0 C2 1 2 1 2 1 Z " fill="#000040" transform="translate(179,46)"/>
<path d="M0 0 C2 1 2 1 2 1 Z " fill="#002A6A" transform="translate(58,46)"/>
<path d="M0 0 C2 1 2 1 2 1 Z " fill="#002A55" transform="translate(60,45)"/>
<path d="M0 0 C2 1 2 1 2 1 Z " fill="#000080" transform="translate(63,44)"/>
<path d="M0 0 C2 1 2 1 2 1 Z " fill="#000040" transform="translate(175,43)"/>
<path d="M0 0 C2 1 2 1 2 1 Z " fill="#002A55" transform="translate(65,43)"/>
<path d="M0 0 C2 1 2 1 2 1 Z " fill="#002A95" transform="translate(68,42)"/>
<path d="M0 0 C2 1 2 1 2 1 Z " fill="#002A2A" transform="translate(70,41)"/>
<path d="M0 0 C2 1 2 1 2 1 Z " fill="#002A55" transform="translate(171,40)"/>
<path d="M0 0 C2 1 2 1 2 1 Z " fill="#002A6A" transform="translate(73,40)"/>
<path d="M0 0 C2 1 2 1 2 1 Z " fill="#002A55" transform="translate(75,39)"/>
<path d="M0 0 C2 1 2 1 2 1 Z " fill="#002A2A" transform="translate(78,38)"/>
<path d="M0 0 C2 1 2 1 2 1 Z " fill="#002A95" transform="translate(80,37)"/>
<path d="M0 0 C2 1 2 1 2 1 Z " fill="#002A55" transform="translate(83,36)"/>
<path d="M0 0 C2 1 2 1 2 1 Z " fill="#000040" transform="translate(164,35)"/>
<path d="M0 0 C2 1 2 1 2 1 Z " fill="#002A95" transform="translate(85,35)"/>
<path d="M0 0 C2 1 2 1 2 1 Z " fill="#002A2A" transform="translate(87,34)"/>
<path d="M0 0 C2 1 2 1 2 1 Z " fill="#002A95" transform="translate(90,33)"/>
<path d="M0 0 C2 1 2 1 2 1 Z " fill="#000040" transform="translate(160,32)"/>
<path d="M0 0 C2 1 2 1 2 1 Z " fill="#002A55" transform="translate(92,32)"/>
<path d="M0 0 C2 1 2 1 2 1 Z " fill="#002A6A" transform="translate(95,31)"/>
<path d="M0 0 C2 1 2 1 2 1 Z " fill="#002A55" transform="translate(97,30)"/>
<path d="M0 0 C2 1 2 1 2 1 Z " fill="#002A55" transform="translate(156,29)"/>
<path d="M0 0 C2 1 2 1 2 1 Z " fill="#002A95" transform="translate(100,29)"/>
<path d="M0 0 C2 1 2 1 2 1 Z " fill="#002A55" transform="translate(102,28)"/>
<path d="M0 0 C2 1 2 1 2 1 Z " fill="#002A55" transform="translate(105,27)"/>
<path d="M0 0 C2 1 2 1 2 1 Z " fill="#002A95" transform="translate(107,26)"/>
<path d="M0 0 C2 1 2 1 2 1 Z " fill="#000040" transform="translate(149,24)"/>
<path d="M0 0 C2 1 2 1 2 1 Z " fill="#000040" transform="translate(145,21)"/>
<path d="M0 0 C2 1 2 1 2 1 Z " fill="#002A55" transform="translate(141,18)"/>
<path d="M0 0 C2 1 2 1 2 1 Z " fill="#000040" transform="translate(134,13)"/>
<path d="M0 0 C2 1 2 1 2 1 Z " fill="#000040" transform="translate(130,10)"/>
<path d="M0 0 C2 1 2 1 2 1 Z " fill="#002A55" transform="translate(126,7)"/>
<path d="M0 0 C2 1 2 1 2 1 Z " fill="#002A55" transform="translate(122,4)"/>
<path d="" fill="#0055AA" transform="translate(0,0)"/>
<path d="" fill="#000080" transform="translate(0,0)"/>
<path d="" fill="#0055AA" transform="translate(0,0)"/>
<path d="" fill="#0040BF" transform="translate(0,0)"/>
<path d="" fill="#004080" transform="translate(0,0)"/>
<path d="" fill="#0040BF" transform="translate(0,0)"/>
<path d="" fill="#004080" transform="translate(0,0)"/>
<path d="" fill="#0055AA" transform="translate(0,0)"/>
<path d="" fill="#005555" transform="translate(0,0)"/>
<path d="" fill="#000080" transform="translate(0,0)"/>
<path d="" fill="#0055AA" transform="translate(0,0)"/>
<path d="" fill="#0055AA" transform="translate(0,0)"/>
<path d="" fill="#0040BF" transform="translate(0,0)"/>
<path d="" fill="#004080" transform="translate(0,0)"/>
<path d="" fill="#0040BF" transform="translate(0,0)"/>
<path d="" fill="#0055AA" transform="translate(0,0)"/>
<path d="" fill="#0055AA" transform="translate(0,0)"/>
<path d="" fill="#000080" transform="translate(0,0)"/>
<path d="" fill="#000080" transform="translate(0,0)"/>
<path d="" fill="#0055AA" transform="translate(0,0)"/>
<path d="" fill="#0055AA" transform="translate(0,0)"/>
<path d="" fill="#004080" transform="translate(0,0)"/>
<path d="" fill="#004080" transform="translate(0,0)"/>
<path d="" fill="#0055AA" transform="translate(0,0)"/>
<path d="" fill="#0040BF" transform="translate(0,0)"/>
<path d="" fill="#000080" transform="translate(0,0)"/>
<path d="" fill="#0055AA" transform="translate(0,0)"/>
<path d="" fill="#0055AA" transform="translate(0,0)"/>
<path d="" fill="#000080" transform="translate(0,0)"/>
<path d="" fill="#004080" transform="translate(0,0)"/>
<path d="" fill="#0055AA" transform="translate(0,0)"/>
<path d="" fill="#0055AA" transform="translate(0,0)"/>
<path d="" fill="#0040BF" transform="translate(0,0)"/>
<path d="" fill="#000080" transform="translate(0,0)"/>
<path d="" fill="#0040BF" transform="translate(0,0)"/>
<path d="" fill="#000000" transform="translate(0,0)"/>
<path d="" fill="#004080" transform="translate(0,0)"/>
<path d="" fill="#000080" transform="translate(0,0)"/>
<path d="" fill="#005555" transform="translate(0,0)"/>
<path d="" fill="#0055AA" transform="translate(0,0)"/>
<path d="" fill="#000080" transform="translate(0,0)"/>
<path d="" fill="#004080" transform="translate(0,0)"/>
<path d="" fill="#004080" transform="translate(0,0)"/>
<path d="" fill="#004080" transform="translate(0,0)"/>
<path d="" fill="#000080" transform="translate(0,0)"/>
<path d="" fill="#004080" transform="translate(0,0)"/>
<path d="" fill="#0055AA" transform="translate(0,0)"/>
<path d="" fill="#000080" transform="translate(0,0)"/>
<path d="" fill="#0040BF" transform="translate(0,0)"/>
<path d="" fill="#0040BF" transform="translate(0,0)"/>
<path d="" fill="#0040BF" transform="translate(0,0)"/>
<path d="" fill="#004080" transform="translate(0,0)"/>
<path d="" fill="#004080" transform="translate(0,0)"/>
<path d="" fill="#000080" transform="translate(0,0)"/>
<path d="" fill="#000080" transform="translate(0,0)"/>
<path d="" fill="#0055AA" transform="translate(0,0)"/>
<path d="" fill="#0040BF" transform="translate(0,0)"/>
<path d="" fill="#0040BF" transform="translate(0,0)"/>
<path d="" fill="#004080" transform="translate(0,0)"/>
<path d="" fill="#0055AA" transform="translate(0,0)"/>
<path d="" fill="#004080" transform="translate(0,0)"/>
<path d="" fill="#0055AA" transform="translate(0,0)"/>
<path d="" fill="#000080" transform="translate(0,0)"/>
<path d="" fill="#0055AA" transform="translate(0,0)"/>
<path d="" fill="#0040BF" transform="translate(0,0)"/>
<path d="" fill="#004080" transform="translate(0,0)"/>
<path d="" fill="#0040BF" transform="translate(0,0)"/>
<path d="" fill="#004080" transform="translate(0,0)"/>
<path d="" fill="#0055AA" transform="translate(0,0)"/>
<path d="" fill="#0055AA" transform="translate(0,0)"/>
<path d="" fill="#000080" transform="translate(0,0)"/>
<path d="" fill="#0055AA" transform="translate(0,0)"/>
<path d="" fill="#004080" transform="translate(0,0)"/>
<path d="" fill="#004080" transform="translate(0,0)"/>
<path d="" fill="#0055AA" transform="translate(0,0)"/>
<path d="" fill="#000080" transform="translate(0,0)"/>
<path d="" fill="#000055" transform="translate(0,0)"/>
<path d="" fill="#004080" transform="translate(0,0)"/>
<path d="" fill="#005555" transform="translate(0,0)"/>
<path d="" fill="#000080" transform="translate(0,0)"/>
<path d="" fill="#0055AA" transform="translate(0,0)"/>
<path d="" fill="#004080" transform="translate(0,0)"/>
<path d="" fill="#0055AA" transform="translate(0,0)"/>
<path d="" fill="#000080" transform="translate(0,0)"/>
<path d="" fill="#004080" transform="translate(0,0)"/>
<path d="" fill="#0055AA" transform="translate(0,0)"/>
<path d="" fill="#000080" transform="translate(0,0)"/>
<path d="" fill="#004080" transform="translate(0,0)"/>
<path d="" fill="#005555" transform="translate(0,0)"/>
<path d="" fill="#000080" transform="translate(0,0)"/>
<path d="" fill="#004080" transform="translate(0,0)"/>
<path d="" fill="#004080" transform="translate(0,0)"/>
<path d="" fill="#0055AA" transform="translate(0,0)"/>
<path d="" fill="#004080" transform="translate(0,0)"/>
<path d="" fill="#0055AA" transform="translate(0,0)"/>
<path d="" fill="#004080" transform="translate(0,0)"/>
<path d="" fill="#000055" transform="translate(0,0)"/>
<path d="" fill="#004080" transform="translate(0,0)"/>
<path d="" fill="#005555" transform="translate(0,0)"/>
<path d="" fill="#004080" transform="translate(0,0)"/>
<path d="" fill="#0055AA" transform="translate(0,0)"/>
<path d="" fill="#004080" transform="translate(0,0)"/>
<path d="" fill="#000080" transform="translate(0,0)"/>
<path d="" fill="#004080" transform="translate(0,0)"/>
<path d="" fill="#000080" transform="translate(0,0)"/>
<path d="" fill="#004080" transform="translate(0,0)"/>
<path d="" fill="#0055AA" transform="translate(0,0)"/>
<path d="" fill="#0055AA" transform="translate(0,0)"/>
<path d="" fill="#0040BF" transform="translate(0,0)"/>
<path d="" fill="#0055AA" transform="translate(0,0)"/>
<path d="" fill="#0040BF" transform="translate(0,0)"/>
<path d="" fill="#000080" transform="translate(0,0)"/>
<path d="" fill="#0055AA" transform="translate(0,0)"/>
<path d="" fill="#0055AA" transform="translate(0,0)"/>
<path d="" fill="#0055AA" transform="translate(0,0)"/>
<path d="" fill="#0040BF" transform="translate(0,0)"/>
<path d="" fill="#0055AA" transform="translate(0,0)"/>
<path d="" fill="#0040BF" transform="translate(0,0)"/>
<path d="" fill="#0055AA" transform="translate(0,0)"/>
<path d="" fill="#0040BF" transform="translate(0,0)"/>
<path d="" fill="#000080" transform="translate(0,0)"/>
<path d="" fill="#0055AA" transform="translate(0,0)"/>
<path d="" fill="#0055AA" transform="translate(0,0)"/>
<path d="" fill="#0040BF" transform="translate(0,0)"/>
<path d="" fill="#0055AA" transform="translate(0,0)"/>
<path d="" fill="#004080" transform="translate(0,0)"/>
<path d="" fill="#0055AA" transform="translate(0,0)"/>
<path d="" fill="#0040BF" transform="translate(0,0)"/>
<path d="" fill="#000080" transform="translate(0,0)"/>
<path d="" fill="#0055AA" transform="translate(0,0)"/>
<path d="" fill="#0055AA" transform="translate(0,0)"/>
<path d="" fill="#0040BF" transform="translate(0,0)"/>
<path d="" fill="#0055AA" transform="translate(0,0)"/>
<path d="" fill="#0040BF" transform="translate(0,0)"/>
<path d="" fill="#0055AA" transform="translate(0,0)"/>
<path d="" fill="#0040BF" transform="translate(0,0)"/>
<path d="" fill="#000080" transform="translate(0,0)"/>
<path d="" fill="#0055AA" transform="translate(0,0)"/>
<path d="" fill="#0055AA" transform="translate(0,0)"/>
<path d="" fill="#0040BF" transform="translate(0,0)"/>
<path d="" fill="#0055AA" transform="translate(0,0)"/>
<path d="" fill="#0040BF" transform="translate(0,0)"/>
<path d="" fill="#0055AA" transform="translate(0,0)"/>
<path d="" fill="#004080" transform="translate(0,0)"/>
<path d="" fill="#000080" transform="translate(0,0)"/>
<path d="" fill="#004080" transform="translate(0,0)"/>
<path d="" fill="#000080" transform="translate(0,0)"/>
<path d="" fill="#004080" transform="translate(0,0)"/>
<path d="" fill="#0055AA" transform="translate(0,0)"/>
</svg>
