<?xml version="1.0" encoding="UTF-8"?>
<svg version="1.1" xmlns="http://www.w3.org/2000/svg" width="512" height="512">
<path d="M0 0 C0.74800991 -0.00465992 1.49601982 -0.00931984 2.26669669 -0.01412097 C4.77533773 -0.02608005 7.28343809 -0.01667219 9.79208374 -0.00736332 C11.60790143 -0.01153583 13.42371652 -0.01701289 15.23952675 -0.02368313 C20.23113127 -0.03816712 25.2225711 -0.03388379 30.21418476 -0.02651632 C35.59667331 -0.02179431 40.97912574 -0.03428587 46.36160278 -0.04453373 C56.90661971 -0.06174554 67.45157711 -0.06255687 77.99660444 -0.05732083 C86.56525751 -0.05328264 95.13389295 -0.05471849 103.70254517 -0.06006908 C104.92115883 -0.06081751 106.1397725 -0.06156593 107.39531386 -0.06233703 C109.87075027 -0.06386847 112.34618668 -0.06540682 114.82162309 -0.066952 C138.0446246 -0.08068544 161.26759244 -0.07523322 184.49059319 -0.06376678 C205.74813082 -0.05383154 227.00558143 -0.06677864 248.26310563 -0.09070098 C270.07935303 -0.11506754 291.89555986 -0.12470599 313.7118206 -0.11804825 C325.96445114 -0.11455085 338.21701473 -0.11682251 350.46963501 -0.13429928 C360.89899844 -0.14899064 371.32824777 -0.1496968 381.75760889 -0.13222837 C387.08086584 -0.12369107 392.40391869 -0.12163529 397.72716522 -0.13687992 C402.59768709 -0.15065566 407.46782865 -0.14605598 412.33832812 -0.12664068 C414.10271109 -0.12285845 415.86712401 -0.12586617 417.63148046 -0.13625234 C420.02600182 -0.14934864 422.41919618 -0.13790598 424.81365967 -0.12025452 C425.5020945 -0.12990503 426.19052932 -0.13955554 426.89982581 -0.14949849 C432.67461825 -0.06181538 435.96828099 2.27811946 440.21932983 5.94281673 C443.99216891 10.50993772 442.68770884 17.87442361 442.40682983 23.38031673 C441.7849955 29.36407955 440.7285138 35.29060387 439.73007202 41.22040462 C439.43908612 42.99569677 439.14902162 44.77114015 438.85979366 46.54671955 C438.06939044 51.38279938 437.26621374 56.21668104 436.46088576 61.05029464 C435.5977183 66.24562526 434.74684761 71.4429704 433.89457703 76.64009762 C432.4268393 85.58033815 430.95183222 94.5193532 429.47155762 103.45752621 C427.14868564 117.48355074 424.83789337 131.51154913 422.52963257 145.5399847 C421.944338 149.09671591 421.35902441 152.653444 420.77369839 156.21017003 C420.38166452 158.59236203 419.98964888 160.97455703 419.59765142 163.35675502 C418.41122611 170.56598621 417.22349594 177.77500109 416.03479785 184.98385787 C410.97697523 215.65853795 405.9672535 246.34054056 401.01903915 277.03309345 C400.033616 283.14534932 399.04657261 289.25734276 398.0592041 295.36928463 C397.42211194 299.31362973 396.7850688 303.25798276 396.14804077 307.20233822 C395.91584937 308.63993549 395.91584937 308.63993549 395.67896724 310.10657513 C393.85145934 321.42288878 392.02972342 332.74010177 390.21621591 344.0586676 C389.08891484 351.09101103 387.95459471 358.12219965 386.8147499 365.15252072 C386.03815711 369.9444098 385.26963088 374.73748928 384.50772417 379.53173417 C384.04624902 382.42210235 383.57656251 385.3110889 383.10437822 388.19972503 C382.78930354 390.14222844 382.48401532 392.08631143 382.17908859 394.03043365 C380.03778129 407.00604347 380.03778129 407.00604347 374.84432983 411.69281673 C371.32792014 414.12725421 369.56594978 414.50646744 365.32607841 414.51453781 C364.24369388 414.51899566 363.16130935 414.5234535 362.04612529 414.52804643 C360.84732301 414.52786207 359.64852073 414.5276777 358.41339111 414.52748775 C357.14734201 414.53116444 355.8812929 414.53484113 354.57687867 414.53862923 C351.05095125 414.54866563 347.52504085 414.55236867 343.99910116 414.55501854 C340.20071276 414.55891683 336.4023379 414.5684956 332.60395813 414.57723141 C323.42410521 414.59701093 314.24425116 414.60706463 305.06438226 414.6159592 C300.7429139 414.62034031 296.42144678 414.62570763 292.0999794 414.63094807 C277.73631227 414.64796304 263.37264592 414.66245703 249.00897026 414.66969681 C245.27993646 414.67160675 241.55090267 414.67352708 237.8218689 414.67548275 C236.89501719 414.67596649 235.96816548 414.67645023 235.01322736 414.67694863 C220.00021317 414.68524816 204.98727868 414.71058258 189.9742993 414.74306343 C174.56534665 414.77612945 159.1564345 414.79414522 143.74744618 414.79734105 C135.09407114 414.79950674 126.44081226 414.80826387 117.78747177 414.83380222 C110.41727896 414.85550312 103.04723052 414.86356273 95.67700939 414.85383544 C91.91699678 414.84928872 88.15728207 414.85119819 84.39731026 414.87059689 C80.31872044 414.89145744 76.24079209 414.88124969 72.16217041 414.86806393 C70.38404349 414.8845178 70.38404349 414.8845178 68.56999481 414.90130407 C61.29887629 414.84448173 55.37392393 414.07480925 49.89073741 408.96840364 C45.3610321 403.88309894 44.14456844 398.68065578 43.06396484 392.10243893 C42.94320469 391.37710797 42.82244454 390.65177701 42.69802499 389.90446633 C42.29424735 387.47060494 41.89866586 385.03548312 41.50302124 382.60028744 C41.2131323 380.84242453 40.92273919 379.08464471 40.63188362 377.32694149 C39.83550949 372.50531394 39.04626134 367.68254291 38.2581358 362.8595612 C37.41211865 357.69034451 36.55938478 352.52223577 35.70742798 347.35399532 C34.05040824 337.29547984 32.39936028 327.23599335 30.75055408 317.17612857 C28.65031574 304.36271439 26.54450458 291.5502173 24.43856812 278.73773861 C23.66263072 274.01670439 22.88672617 269.29566477 22.11083984 264.57462215 C21.91798554 263.4012064 21.72513124 262.22779064 21.52643287 261.01881683 C20.34742659 253.84464675 19.16923444 246.67034346 17.99161088 239.49594629 C13.17680637 210.16419122 8.33271727 180.83751648 3.44751656 151.51740307 C2.27607557 144.48618867 1.10657341 137.45465435 -0.0614624 130.4228735 C-0.22250603 129.45340576 -0.38354966 128.48393801 -0.5494734 127.48509246 C-1.18917257 123.63387886 -1.82879832 119.78265309 -2.46819329 115.93138897 C-4.31149658 104.82878577 -6.16096154 93.72725473 -8.02090263 82.62742621 C-9.17743284 75.7216375 -10.32577093 68.81451772 -11.46771622 61.90630239 C-12.12019779 57.96081442 -12.77630042 54.01602435 -13.44268036 50.07285786 C-14.04983927 46.47995975 -14.64640955 42.88546274 -15.23493695 39.28946722 C-15.54712346 37.39867331 -15.87036623 35.50971476 -16.19417381 33.62087631 C-19.69974055 11.96339416 -19.69974055 11.96339416 -15.96817017 5.69281673 C-11.17824618 1.02894338 -6.51302763 -0.06374243 0 0 Z M139.40682983 140.38031673 C142.60370483 157.16906673 145.80057983 173.95781673 149.09432983 191.25531673 C150.09295044 196.50035091 151.09157104 201.74538509 152.12045288 207.1493597 C153.03842888 211.96957128 153.03842888 211.96957128 153.95646667 216.78977108 C154.35633289 218.88944547 154.7561096 220.98913691 155.1558075 223.08884335 C156.3634861 229.43285606 157.57316989 235.776481 158.78490829 242.11971951 C159.45409396 245.62811212 160.1202969 249.13706565 160.78662109 252.64600277 C161.24040973 255.02637245 161.69429501 257.40672371 162.14828491 259.78705502 C162.35961154 260.90356379 162.57093817 262.02007256 162.78866863 263.17041492 C163.08454483 264.71788001 163.08454483 264.71788001 163.38639832 266.29660702 C163.5596806 267.20780363 163.73296289 268.11900024 163.91149616 269.05780888 C164.3916035 271.52029068 164.3916035 271.52029068 165.40682983 274.38031673 C196.75682983 274.38031673 228.10682983 274.38031673 260.40682983 274.38031673 C263.61621963 257.62699882 263.61621963 257.62699882 266.60507202 240.83856869 C266.79097397 239.75606838 266.97687592 238.67356808 267.16841125 237.55826473 C267.76544218 234.07870376 268.35968604 230.59867433 268.95370483 227.11859798 C269.37384874 224.66473462 269.79411886 222.21089285 270.21450806 219.7570715 C271.08635296 214.6654739 271.95682839 209.57364473 272.82626343 204.48163509 C273.71879877 199.25478508 274.61292199 194.02821156 275.50888062 188.80194759 C276.59785311 182.44975249 277.68521432 176.09728411 278.77112579 169.74456501 C279.18372652 167.33184578 279.59680556 164.9192083 280.01036835 162.50665379 C280.58391952 159.15923286 281.15534147 155.81145553 281.72616577 152.46356869 C281.89754562 151.46581921 282.06892548 150.46806973 282.24549866 149.44008541 C282.47663109 148.08052731 282.47663109 148.08052731 282.71243286 146.69350338 C282.84735012 145.90406999 282.98226738 145.11463659 283.12127304 144.30128098 C283.45584221 142.37428519 283.45584221 142.37428519 283.40682983 140.38031673 C235.88682983 140.38031673 188.36682983 140.38031673 139.40682983 140.38031673 Z " fill="#2583FF" transform="translate(43.593170166015625,48.619683265686035)"/>
</svg>
