<?xml version="1.0" encoding="UTF-8"?>
<svg width="32" height="32" viewBox="0 0 32 32" fill="none" xmlns="http://www.w3.org/2000/svg">
  <path d="M24.5 8C24.5 8 21 4.5 16 4.5C11 4.5 7.5 8 7.5 8C7.5 8 11 11.5 16 11.5C21 11.5 24.5 8 24.5 8Z" fill="black"/>
  <path d="M7.5 8C7.5 8 11 11.5 16 11.5C21 11.5 24.5 8 24.5 8C24.5 8 21 19.5 16 19.5C11 19.5 7.5 8 7.5 8Z" fill="black"/>
  <path d="M16 19.5C11 19.5 7.5 8 7.5 8C7.5 8 11 23 16 23C21 23 24.5 8 24.5 8C24.5 8 21 19.5 16 19.5Z" fill="black"/>
</svg>