<?xml version="1.0" encoding="UTF-8"?>
<svg version="1.1" xmlns="http://www.w3.org/2000/svg" width="108" height="100">
<path d="M0 0 C1.82519531 0.54321289 1.82519531 0.54321289 4 2 C5.12488346 4.46570102 5.99223823 6.74030974 6.796875 9.30859375 C7.0353717 10.03111832 7.27386841 10.75364288 7.51959229 11.49806213 C8.02056497 13.02482574 8.51436028 14.55396052 9.00146484 16.08520508 C9.74756526 18.42984875 10.51424634 20.76692556 11.28515625 23.10351562 C11.76944395 24.58814595 12.25255686 26.07316012 12.734375 27.55859375 C12.96243835 28.2586705 13.19050171 28.95874725 13.42547607 29.68003845 C14.34273327 32.57361374 15 34.94393123 15 38 C27.87 38 40.74 38 54 38 C54.66 35.03 55.32 32.06 56 29 C57.34742416 24.13145805 58.86101017 19.31903953 60.375 14.5 C60.66600586 13.53175293 60.66600586 13.53175293 60.96289062 12.54394531 C61.52937543 10.6597676 62.11979277 8.78283696 62.7109375 6.90625 C63.05431152 5.79572266 63.39768555 4.68519531 63.75146484 3.54101562 C65 1 65 1 67.14306641 0.13085938 C67.75585449 0.08767578 68.36864258 0.04449219 69 0 C72.39864407 4.88411367 73.96368567 10.36065299 75.79296875 15.9609375 C76.31930656 17.55683212 76.31930656 17.55683212 76.85627747 19.18496704 C77.59478891 21.43151154 78.33004328 23.67912901 79.06225586 25.92773438 C80.18246029 29.3595605 81.32012723 32.78526307 82.45898438 36.2109375 C83.17555312 38.39808593 83.89108266 40.58557517 84.60546875 42.7734375 C85.11632271 44.30343887 85.11632271 44.30343887 85.63749695 45.86434937 C87.31720888 51.07869056 88.59617841 55.51177278 88 61 C86.3046875 63.08203125 86.3046875 63.08203125 83.875 64.8125 C82.95460938 65.48539062 82.03421875 66.15828125 81.0859375 66.8515625 C79.55839844 67.91503906 79.55839844 67.91503906 78 69 C76.40093077 70.1546629 74.8018642 71.30932949 73.20288086 72.46411133 C71.4471441 73.72547289 69.68365996 74.97527247 67.91796875 76.22265625 C63.52800524 79.3270923 59.16957447 82.47463979 54.8125 85.625 C54.05018066 86.17591309 53.28786133 86.72682617 52.50244141 87.29443359 C46.66014321 91.51843668 40.825463 95.7528012 35 100 C29.88718801 97.2105968 25.29834795 94.11079221 20.6875 90.5625 C14.7665384 86.06164622 8.79031405 81.65183912 2.75 77.3125 C1.24464233 76.2254672 -0.2605693 75.13823212 -1.765625 74.05078125 C-4.41290262 72.13932268 -7.06925638 70.24194055 -9.734375 68.35546875 C-10.8233064 67.5708531 -11.91187656 66.78573576 -13 66 C-13.928125 65.34 -14.85625 64.68 -15.8125 64 C-18.3326878 61.6958283 -19.06898704 60.2674221 -20 57 C-19.57061768 54.32417297 -19.57061768 54.32417297 -18.60644531 51.4152832 C-18.07534149 49.77382072 -18.07534149 49.77382072 -17.5335083 48.09919739 C-17.13573181 46.92822006 -16.73795532 45.75724274 -16.328125 44.55078125 C-15.93050964 43.34181686 -15.53289429 42.13285248 -15.12322998 40.88725281 C-14.27982963 38.33330779 -13.4306408 35.78232052 -12.5703125 33.23413086 C-11.46756817 29.96726862 -10.38459816 26.69429141 -9.30861282 23.41853046 C-8.28086154 20.29347961 -7.24205054 17.17213194 -6.203125 14.05078125 C-5.61860565 12.28520622 -5.61860565 12.28520622 -5.02227783 10.48396301 C-4.65559998 9.39911118 -4.28892212 8.31425934 -3.91113281 7.1965332 C-3.58977356 6.23898636 -3.26841431 5.28143951 -2.93731689 4.2948761 C-2 2 -2 2 0 0 Z " fill="#FCA125" transform="translate(20,0)"/>
<path d="M0 0 C1.82519531 0.54321289 1.82519531 0.54321289 4 2 C5.12488346 4.46570102 5.99223823 6.74030974 6.796875 9.30859375 C7.0353717 10.03111832 7.27386841 10.75364288 7.51959229 11.49806213 C8.02056497 13.02482574 8.51436028 14.55396052 9.00146484 16.08520508 C9.74756526 18.42984875 10.51424634 20.76692556 11.28515625 23.10351562 C11.76944395 24.58814595 12.25255686 26.07316012 12.734375 27.55859375 C12.96243835 28.2586705 13.19050171 28.95874725 13.42547607 29.68003845 C14.34273327 32.57361374 15 34.94393123 15 38 C27.87 38 40.74 38 54 38 C54.66 35.03 55.32 32.06 56 29 C57.34742416 24.13145805 58.86101017 19.31903953 60.375 14.5 C60.66600586 13.53175293 60.66600586 13.53175293 60.96289062 12.54394531 C61.52937543 10.6597676 62.11979277 8.78283696 62.7109375 6.90625 C63.05431152 5.79572266 63.39768555 4.68519531 63.75146484 3.54101562 C65 1 65 1 67.14306641 0.13085938 C67.75585449 0.08767578 68.36864258 0.04449219 69 0 C71.55895522 3.90462472 73.05298617 7.72674501 74.48046875 12.1640625 C74.80704216 13.17489395 74.80704216 13.17489395 75.14021301 14.20614624 C75.59609513 15.62213703 76.04890272 17.039121 76.4987793 18.45703125 C77.18835421 20.6276889 77.88932286 22.79442428 78.59179688 24.9609375 C82 35.58417839 82 35.58417839 82 39 C72.76 39 63.52 39 54 39 C53.01 42.3 52.02 45.6 51 49 C49.96704933 52.31561108 48.92773016 55.62821033 47.875 58.9375 C47.58294678 59.85611816 47.29089355 60.77473633 46.98999023 61.72119141 C43.11287568 73.85342561 39.05460201 85.92617319 35 98 C32.79523523 94.69285284 31.62057951 91.37601955 30.35546875 87.6484375 C30.10380447 86.91613922 29.8521402 86.18384094 29.59284973 85.42935181 C29.05872619 83.87159378 28.52677507 82.31308944 27.99682617 80.75390625 C27.2062838 78.43021247 26.40746171 76.10950072 25.60742188 73.7890625 C21.67487419 62.31797186 17.94243764 50.76975058 15 39 C5.76 39 -3.48 39 -13 39 C-11.21549891 30.96974509 -9.01815637 23.37039379 -6.5 15.5625 C-6.09223013 14.27155315 -5.68467652 12.98053796 -5.27734375 11.68945312 C-4.88675781 10.47322266 -4.49617187 9.25699219 -4.09375 8.00390625 C-3.73990234 6.89861572 -3.38605469 5.7933252 -3.02148438 4.65454102 C-2 2 -2 2 0 0 Z " fill="#E34428" transform="translate(20,0)"/>
<path d="M0 0 C8.91 0 17.82 0 27 0 C23.10955085 5.83567372 19.33356469 11.23089124 14.875 16.5625 C10.43748297 21.94146273 6.14592277 27.39333044 2 33 C-2.25788133 38.74328833 -6.62942926 44.37797752 -11.125 49.9375 C-11.681875 50.63037109 -12.23875 51.32324219 -12.8125 52.03710938 C-13.58980469 52.99133789 -13.58980469 52.99133789 -14.3828125 53.96484375 C-15.06947998 54.80970337 -15.06947998 54.80970337 -15.77001953 55.67163086 C-17 57 -17 57 -19 58 C-17.08883865 50.06413001 -14.43694255 42.44901044 -11.69580078 34.77294922 C-9.49063999 28.54339903 -7.51885397 22.2815278 -5.77392578 15.90771484 C-4.21860289 10.3456987 -2.19023628 5.47559069 0 0 Z " fill="#FB6C26" transform="translate(74,39)"/>
<path d="M0 0 C8.91 0 17.82 0 27 0 C27.9075 2.371875 28.815 4.74375 29.75 7.1875 C30.02682617 7.90446045 30.30365234 8.6214209 30.58886719 9.36010742 C32.60290171 14.68063105 34.27072924 20.08003755 35.92041016 25.52319336 C37.02228998 29.07178462 38.19480477 32.58882164 39.39453125 36.10546875 C39.99104492 37.85633789 39.99104492 37.85633789 40.59960938 39.64257812 C41.42341228 42.05031126 42.25169652 44.45651483 43.08398438 46.86132812 C43.47521484 48.01439453 43.86644531 49.16746094 44.26953125 50.35546875 C44.80477417 51.91237427 44.80477417 51.91237427 45.35083008 53.50073242 C46 56 46 56 45 58 C39.44591883 52.11920817 34.57591595 45.8523437 29.77636719 39.359375 C26.14158722 34.46474908 22.37396727 29.70700365 18.5 25 C13.93638747 19.44555777 9.5050631 13.81064321 5.1875 8.0625 C4.66542969 7.36962891 4.14335937 6.67675781 3.60546875 5.96289062 C0 1.12783946 0 1.12783946 0 0 Z " fill="#FB6C26" transform="translate(8,39)"/>
</svg>
