<?xml version="1.0" encoding="UTF-8"?>
<svg version="1.1" xmlns="http://www.w3.org/2000/svg" width="29" height="32">
<path d="M0 0 C0.33 0.99 0.66 1.98 1 3 C1.845625 3.495 2.69125 3.99 3.5625 4.5 C4.366875 4.995 5.17125 5.49 6 6 C6 6.99 6 7.98 6 9 C3.78541624 8.52544634 2.07932046 8.04759227 0.125 6.875 C-2.99463533 5.59044428 -4.79848232 6.01994357 -8 7 C-10.85554017 9.43727882 -10.85554017 9.43727882 -13 12 C-11.6696875 12.1546875 -11.6696875 12.1546875 -10.3125 12.3125 C-4.91530087 13.4326734 -2.22634507 15.34234063 0.8125 19.875 C2.64219047 23.02068235 3.84470615 25.30441061 3 29 C1.45265992 30.94910454 0.54872682 31.88413589 -1.91357422 32.40405273 C-4.23522048 32.43608457 -6.55312379 32.45780257 -8.875 32.4375 C-9.67808594 32.45748047 -10.48117187 32.47746094 -11.30859375 32.49804688 C-15.2686548 32.49478488 -17.53354534 32.26286726 -21.04296875 30.28515625 C-23.34458129 27.5976446 -23.60227372 26.48682451 -23.4375 23 C-23.41558594 22.154375 -23.39367187 21.30875 -23.37109375 20.4375 C-22.64227365 15.65030269 -20.38227646 13.29086358 -17 10 C-15.21058904 7.9491226 -13.44292932 5.88140877 -11.68359375 3.8046875 C-7.94576709 -0.20198516 -5.26694769 -0.19875274 0 0 Z M-13 17 C-12.01906046 19.45234885 -11.31296172 20.7809268 -9.125 22.3125 C-6.62654486 23.12082372 -5.47071024 22.71847013 -3 22 C-4.14324839 20.9970458 -5.28967191 19.99770973 -6.4375 19 C-7.07558594 18.443125 -7.71367187 17.88625 -8.37109375 17.3125 C-10.58242522 15.53070774 -10.44283294 15.72141647 -13 17 Z M-21 20 C-21 21.65 -21 23.3 -21 25 C-20.67 25 -20.34 25 -20 25 C-20 23.35 -20 21.7 -20 20 C-20.33 20 -20.66 20 -21 20 Z " fill="#171C26" transform="translate(23,0)"/>
</svg>
